<?xml version="1.0" encoding="UTF-8" standalone="no"?>
<svg xmlns="http://www.w3.org/2000/svg" xmlns:xlink="http://www.w3.org/1999/xlink" width="154.860mm" height="254.403mm" viewBox="26.120667 -271.740479 154.860413 254.402832">
    <rect transform="matrix(1,0,0,-1,68.422531,-44.562439)" style="stroke:#ff0000;stroke-width:0.050000mm;fill:none" x="-29.072172" y="-13.063591" width="58.144344" height="26.127182"/>
    <rect transform="matrix(1,0,0,-1,70,-127.690132)" style="stroke:#ff0000;stroke-width:0.050000mm;fill:none" x="-22.298969" y="-10.19889" width="44.597939" height="20.397779"/>
    <rect transform="matrix(1,0,0,-1,134.007843,-193.74292)" style="stroke:#ff0000;stroke-width:0.050000mm;fill:none" x="-6.985794" y="-43.5" width="13.971588" height="87"/>
    <path transform="matrix(0.007283,-0.999973,-0.999973,-0.007283,393.03833,-10.710068)" style="stroke:#ff0000;stroke-width:0.050000mm;fill:none" d="M22,217.5L22,214.5L31,214.5L31,217.5L40,217.5L40,214.5L49,214.5L49,217.5L58,217.5L58,214.5L67,214.5L67,217.5L76,217.5L76,214.5L85,214.5L85,217.5L94,217.5L94,214.5L103,214.5L103,217.5L112,217.5L112,214.5L117,214.5L117,217.5L117,223.5L120,223.5L120,232.5L117,232.5L117,241.5L120,241.5L120,250.5L117,250.5L117,259.5L120,259.5L120,268.5L117,268.5L117,274.5L8,274.5L8,268.5L5,268.5L5,259.5L8,259.5L8,250.5L5,250.5L5,241.5L8,241.5L8,232.5L5,232.5L5,223.5L8,223.5L8,217.5L8,214.5L13,214.5L13,217.5L22,217.5z"/>
    <path transform="matrix(0.018091,-0.999836,-0.999836,-0.018091,391.194519,-11.079102)" style="stroke:#ff0000;stroke-width:0.050000mm;fill:none" d="M140,217.5L140,214.5L149,214.5L149,217.5L158,217.5L158,214.5L167,214.5L167,217.5L176,217.5L176,214.5L185,214.5L185,217.5L194,217.5L194,214.5L203,214.5L203,217.5L212,217.5L212,214.5L221,214.5L221,217.5L230,217.5L230,214.5L235,214.5L235,217.5L235,223.5L238,223.5L238,232.5L235,232.5L235,241.5L238,241.5L238,250.5L235,250.5L235,259.5L238,259.5L238,268.5L235,268.5L235,274.5L126,274.5L126,268.5L123,268.5L123,259.5L126,259.5L126,250.5L123,250.5L123,241.5L126,241.5L126,232.5L123,232.5L123,223.5L126,223.5L126,217.5L126,214.5L131,214.5L131,217.5L140,217.5z"/>
    <path transform="matrix(1,0,0,-1,23.5,188.5)" style="stroke:#ff0000;stroke-width:0.050000mm;fill:none" d="M25,280.5L25,277.5L34,277.5L34,280.5L43,280.5L43,277.5L52,277.5L52,280.5L61,280.5L61,277.5L70,277.5L70,280.5L79,280.5L79,277.5L87,277.5L90,277.5L90,280.5L90,286.5L87,286.5L87,295.5L90,295.5L90,304.5L87,304.5L87,313.5L90,313.5L90,322.5L87,322.5L87,331.5L90,331.5L90,337.5L87,337.5L8,337.5L5,337.5L5,331.5L8,331.5L8,322.5L5,322.5L5,313.5L8,313.5L8,304.5L5,304.5L5,295.5L8,295.5L8,286.5L5,286.5L5,280.5L5,277.5L8,277.5L16,277.5L16,280.5L25,280.5z"/>
    <path transform="matrix(1,0,0,-1,-65.5,257.5)" style="stroke:#ff0000;stroke-width:0.050000mm;fill:none" d="M113,280.5L113,277.5L122,277.5L122,280.5L131,280.5L131,277.5L140,277.5L140,280.5L149,280.5L149,277.5L158,277.5L158,280.5L167,280.5L167,277.5L175,277.5L178,277.5L178,280.5L178,286.5L175,286.5L175,295.5L178,295.5L178,304.5L175,304.5L175,313.5L178,313.5L178,322.5L175,322.5L175,331.5L178,331.5L178,337.5L175,337.5L96,337.5L93,337.5L93,331.5L96,331.5L96,322.5L93,322.5L93,313.5L96,313.5L96,304.5L93,304.5L93,295.5L96,295.5L96,286.5L93,286.5L93,280.5L93,277.5L96,277.5L104,277.5L104,280.5L113,280.5z"/>
    <path transform="matrix(0.007689,-0.99997,-0.99997,-0.007689,453.008087,-148.545517)" style="stroke:#ff0000;stroke-width:0.050000mm;fill:none" d="M31,345L31,342L40,342L40,345L49,345L49,342L58,342L58,345L67,345L67,342L76,342L76,345L85,345L85,342L94,342L94,345L103,345L103,342L112,342L112,345L117,345L117,353L120,353L120,362L117,362L117,371L120,371L120,380L117,380L117,389L120,389L120,398L117,398L117,407L120,407L120,416L117,416L117,424L112,424L112,427L103,427L103,424L94,424L94,427L85,427L85,424L76,424L76,427L67,427L67,424L58,424L58,427L49,427L49,424L40,424L40,427L31,427L31,424L22,424L22,427L13,427L13,424L8,424L8,416L5,416L5,407L8,407L8,398L5,398L5,389L8,389L8,380L5,380L5,371L8,371L8,362L5,362L5,353L8,353L8,345L13,345L13,342L22,342L22,345L31,345z"/>
</svg>
