<?xml version="1.0" encoding="UTF-8" standalone="no"?>
<svg xmlns="http://www.w3.org/2000/svg" xmlns:xlink="http://www.w3.org/1999/xlink" width="149.155mm" height="244.625mm" viewBox="41.400421 -268.069702 149.155060 244.625244">
    <path transform="matrix(1,0,0,-1,41.400414,262.555542)" style="stroke:#ff0000;stroke-width:0.050000mm;fill:none" d="M80.250092,296.500031L80.250092,302.500031L77.250084,302.500031L77.250084,308.500031L80.250092,308.500031L80.250092,314.500031L77.250084,314.500031L77.250084,320.500061L80.250092,320.500061L80.250092,326.500061L77.250084,326.500061L77.250084,332.500061L80.250092,332.500061L80.250092,338.500061L77.250084,338.500061L77.250084,346.000061L3.250014,346.000061L3.250014,338.500061L0.250011,338.500061L0.250011,332.500061L3.250014,332.500061L3.250014,326.500061L0.250011,326.500061L0.250011,320.500061L3.250014,320.500061L3.250014,314.500031L0.250011,314.500031L0.250011,308.500031L3.250014,308.500031L3.250014,302.500031L0.250011,302.500031L0.250011,296.500031L3.250014,296.500031L3.250014,289L3.250014,286L7.250018,286L7.250018,289L13.250024,289L13.250024,286L19.250031,286L19.250031,289L25.250034,289L25.250034,286L31.250042,286L31.250042,289L37.250046,289L37.250046,286L43.250053,286L43.250053,289L49.250061,289L49.250061,286L55.250065,286L55.250065,289L61.250069,289L61.250069,286L67.250076,286L67.250076,289L73.250084,289L73.250084,286L77.250084,286L77.250084,289L77.250084,296.500031L80.250092,296.500031z"/>
    <path transform="matrix(1,0,0,-1,41.400414,262.555542)" style="stroke:#ff0000;stroke-width:0.050000mm;fill:none" d="M80.000076,360.375092L80.000076,366.375092L77.000076,366.375092L77.000076,372.375092L80.000076,372.375092L80.000076,378.375092L77.000076,378.375092L77.000076,384.375122L80.000076,384.375122L80.000076,390.375122L77.000076,390.375122L77.000076,396.375122L80.000076,396.375122L80.000076,402.375122L77.000076,402.375122L77.000076,409.875122L3.000008,409.875122L3.000008,402.375122L0.000008,402.375122L0.000008,396.375122L3.000008,396.375122L3.000008,390.375122L0.000008,390.375122L0.000008,384.375122L3.000008,384.375122L3.000008,378.375092L0.000008,378.375092L0.000008,372.375092L3.000008,372.375092L3.000008,366.375092L0.000008,366.375092L0.000008,360.375092L3.000008,360.375092L3.000008,352.875061L3.000008,349.875061L7.000015,349.875061L7.000015,352.875061L13.000023,352.875061L13.000023,349.875061L19.000023,349.875061L19.000023,352.875061L25.000031,352.875061L25.000031,349.875061L31.000038,349.875061L31.000038,352.875061L37.000046,352.875061L37.000046,349.875061L43.000046,349.875061L43.000046,352.875061L49.000061,352.875061L49.000061,349.875061L55.000061,349.875061L55.000061,352.875061L61.000061,352.875061L61.000061,349.875061L67.000076,349.875061L67.000076,352.875061L73.000076,352.875061L73.000076,349.875061L77.000076,349.875061L77.000076,352.875061L77.000076,360.375092L80.000076,360.375092z"/>
    <path transform="matrix(1,0,0,-1,41.400414,262.555542)" style="stroke:#ff0000;stroke-width:0.050000mm;fill:none" d="M149.132843,305.416687L149.124481,311.416687L146.124481,311.412506L146.11615,317.412506L149.11615,317.416687L149.107819,323.416687L146.107819,323.412506L146.099457,329.412506L149.099457,329.416687L149.091125,335.416687L146.091125,335.412506L146.082794,341.412506L149.082794,341.416687L149.074463,347.416687L146.074463,347.412506L146.066101,353.412506L149.066101,353.416687L149.05777,359.416687L146.05777,359.412506L146.049438,365.412506L149.049438,365.416687L149.041077,371.416687L146.041077,371.412506L146.032745,377.412506L149.032745,377.416687L149.024414,383.416687L146.024414,383.412506L146.016083,389.412506L149.016083,389.416687L149.006348,396.416687L149.002167,399.416687L146.002167,399.412506L138.502167,399.402069L138.506348,396.402069L132.506348,396.393738L132.502167,399.393738L126.502167,399.385406L126.506348,396.385406L120.506348,396.377075L120.502167,399.377075L114.502167,399.368713L114.506348,396.368713L108.506348,396.360382L108.502167,399.360382L102.502167,399.352051L102.506348,396.352051L96.506348,396.343689L96.502167,399.343689L89.002167,399.333282L89.006348,396.333282L89.150909,292.333282L89.15506,289.333282L96.65506,289.343719L96.650909,292.343719L102.650909,292.352051L102.65506,289.352051L108.65506,289.360382L108.650909,292.360382L114.650909,292.368713L114.65506,289.368713L120.65506,289.377075L120.650909,292.377075L126.650909,292.385406L126.65506,289.385406L132.65506,289.393738L132.650909,292.393738L138.650909,292.4021L138.65506,289.4021L146.15506,289.412506L149.15506,289.416687L149.150909,292.416687L149.141174,299.416687L146.141174,299.412506L146.132843,305.412506L149.132843,305.416687z"/>
    <path transform="matrix(1,0,0,-1,41.400414,262.555542)" style="stroke:#ff0000;stroke-width:0.050000mm;fill:none" d="M148.975769,418.416687L148.967407,424.416687L145.967407,424.412476L145.959076,430.412476L148.959076,430.416687L148.950745,436.416687L145.950745,436.412476L145.942383,442.412476L148.942383,442.416687L148.934052,448.416687L145.934052,448.412476L145.92572,454.412476L148.92572,454.416687L148.917389,460.416687L145.917389,460.412476L145.909027,466.412476L148.909027,466.416687L148.900696,472.416687L145.900696,472.412476L145.892365,478.412476L148.892365,478.416687L148.884003,484.416687L145.884003,484.412476L145.875671,490.412476L148.875671,490.416687L148.86734,496.416687L145.86734,496.412476L145.859009,502.412476L148.859009,502.416687L148.849274,509.416687L148.845093,512.416687L145.845093,512.412476L138.345093,512.4021L138.349274,509.402069L132.349274,509.393738L132.345093,512.393738L126.345093,512.385376L126.349274,509.385376L120.349274,509.377075L120.345093,512.377075L114.345093,512.368713L114.349274,509.368713L108.349274,509.360352L108.345093,512.360352L102.345093,512.352051L102.349274,509.352051L96.349274,509.343689L96.345093,512.343689L88.845093,512.333252L88.849274,509.333252L88.993835,405.333282L88.997986,402.333282L96.497986,402.343689L96.493835,405.343689L102.493835,405.352051L102.497986,402.352051L108.497986,402.360382L108.493835,405.360382L114.493835,405.368713L114.497986,402.368713L120.497986,402.377075L120.493835,405.377075L126.493835,405.385406L126.497986,402.385406L132.497986,402.393738L132.493835,405.393738L138.493835,405.402069L138.497986,402.402069L145.997986,402.412506L148.997986,402.416687L148.993835,405.416687L148.9841,412.416687L145.9841,412.412506L145.975769,418.412476L148.975769,418.416687z"/>
    <path transform="matrix(1,0,0,-1,41.400414,262.555542)" style="stroke:#ff0000;stroke-width:0.050000mm;fill:none" d="M67.500076,530.625244L67.500076,527.625244L61.500069,527.625244L61.500069,530.625244L55.500065,530.625244L55.500065,527.625244L49.500061,527.625244L49.500061,530.625244L43.500053,530.625244L43.500053,527.625244L37.500046,527.625244L37.500046,530.625244L31.500042,530.625244L31.500042,527.625244L25.500036,527.625244L25.500036,530.625244L19.500031,530.625244L19.500031,527.625244L13.500025,527.625244L13.500025,530.625244L7.500019,530.625244L7.500019,527.625244L3.500015,527.625244L3.500015,520.625244L0.500012,520.625244L0.500012,514.625244L3.500015,514.625244L3.500015,508.625244L0.500012,508.625244L0.500012,502.625244L3.500015,502.625244L3.500015,496.625244L0.500012,496.625244L0.500012,490.625244L3.500015,490.625244L3.500015,484.625183L0.500012,484.625183L0.500012,478.625183L3.500015,478.625183L3.500015,472.625183L0.500012,472.625183L0.500012,466.625183L3.500015,466.625183L3.500015,460.625183L0.500012,460.625183L0.500012,454.625183L3.500015,454.625183L3.500015,448.625183L0.500012,448.625183L0.500012,442.625183L3.500015,442.625183L3.500015,436.625183L0.500012,436.625183L0.500012,430.625183L3.500015,430.625183L3.500015,423.625183L7.500019,423.625183L7.500019,420.625122L13.500025,420.625122L13.500025,423.625183L19.500031,423.625183L19.500031,420.625122L25.500036,420.625122L25.500036,423.625183L31.500042,423.625183L31.500042,420.625122L37.500046,420.625122L37.500046,423.625183L43.500053,423.625183L43.500053,420.625122L49.500061,420.625122L49.500061,423.625183L55.500065,423.625183L55.500065,420.625122L61.500069,420.625122L61.500069,423.625183L67.500076,423.625183L67.500076,420.625122L73.500084,420.625122L73.500084,423.625183L77.500084,423.625183L77.500084,430.625183L80.500092,430.625183L80.500092,436.625183L77.500084,436.625183L77.500084,442.625183L80.500092,442.625183L80.500092,448.625183L77.500084,448.625183L77.500084,454.625183L80.500092,454.625183L80.500092,460.625183L77.500084,460.625183L77.500084,466.625183L80.500092,466.625183L80.500092,472.625183L77.500084,472.625183L77.500084,478.625183L80.500092,478.625183L80.500092,484.625183L77.500084,484.625183L77.500084,490.625244L80.500092,490.625244L80.500092,496.625244L77.500084,496.625244L77.500084,502.625244L80.500092,502.625244L80.500092,508.625244L77.500084,508.625244L77.500084,514.625244L80.500092,514.625244L80.500092,520.625244L77.500084,520.625244L77.500084,527.625244L73.500084,527.625244L73.500084,530.625244L67.500076,530.625244z"/>
    <rect transform="matrix(1.000001,0,0,-1.000001,79.400459,-45.319489)" style="stroke:#ff0000;stroke-width:0.050000mm;fill:none" x="-29.072172" y="-13.063591" width="58.144344" height="26.127182"/>
    <rect transform="matrix(1.000001,0,0,-1.000001,79.400459,-109.31955)" style="stroke:#ff0000;stroke-width:0.050000mm;fill:none" x="-22.298969" y="-8.889027" width="44.597939" height="17.778053"/>
    <rect transform="matrix(1,0,0,-1,144.985794,-194.5)" style="stroke:#ff0000;stroke-width:0.050000mm;fill:none" x="-6.985794" y="-43.5" width="13.971588" height="87"/>
</svg>
