<?xml version="1.0" encoding="UTF-8" standalone="no"?>
<svg xmlns="http://www.w3.org/2000/svg" xmlns:xlink="http://www.w3.org/1999/xlink" width="200.000mm" height="150.000mm" viewBox="4.000015 -226.000000 200.000000 150.000000">
    <path transform="matrix(-1,-0,-0,1,204.000061,-640)" style="stroke:#ff0000;stroke-width:0.050000mm;fill:none" d="M152.5,564L152.5,561L131.5,561L131.5,564L110.5,564L110.5,561L89.5,561L89.5,564L68.5,564L68.5,561L47.5,561L47.5,564L26.5,564L26.5,561L3,561L3,541.5L0,541.5L0,520.5L3,520.5L3,499.5L0,499.5L0,478.5L3,478.5L3,457.5L0,457.5L0,436.5L3,436.5L3,417L26.5,417L26.5,414L47.5,414L47.5,417L68.5,417L68.5,414L89.5,414L89.5,417L110.5,417L110.5,414L131.5,414L131.5,417L152.5,417L152.5,414L173.5,414L173.5,417L197,417L197,436.5L200,436.5L200,457.5L197,457.5L197,478.5L200,478.5L200,499.5L197,499.5L197,520.5L200,520.5L200,541.5L197,541.5L197,561L173.5,561L173.5,564L152.5,564z"/>
    <rect transform="matrix(-1,-0,-0,1,104,-169)" style="stroke:#ff0000;stroke-width:0.050000mm;fill:none" x="-49.926678" y="-35.00013" width="99.853355" height="70.000259"/>
    <rect transform="matrix(1,0,0,-1,62.5,-92.5)" style="stroke:#ff0000;stroke-width:0.050000mm;fill:none" x="-7.5" y="-10.5" width="15" height="21"/>
    <rect transform="matrix(1,0,0,-1,154,-93)" style="stroke:#ff0000;stroke-width:0.050000mm;fill:none" x="-7.5" y="-10.5" width="15" height="21"/>
</svg>
