<?xml version="1.0" encoding="UTF-8" standalone="no"?>
<svg xmlns="http://www.w3.org/2000/svg" xmlns:xlink="http://www.w3.org/1999/xlink" width="200.000mm" height="150.000mm" viewBox="5.000000 -282.000000 200.000000 150.000000">
    <path transform="matrix(1,0,0,-1,0,835)" style="stroke:#ff0000;stroke-width:0.050000mm;fill:none" d="M157.5,1117L157.5,1114L136.5,1114L136.5,1117L115.5,1117L115.5,1114L94.5,1114L94.5,1117L73.5,1117L73.5,1114L52.5,1114L52.5,1117L31.5,1117L31.5,1114L8,1114L8,1094.5L5,1094.5L5,1073.5L8,1073.5L8,1052.5L5,1052.5L5,1031.5L8,1031.5L8,1010.5L5,1010.5L5,989.5L8,989.5L8,970L31.5,970L31.5,967L52.5,967L52.5,970L73.5,970L73.5,967L94.5,967L94.5,970L115.5,970L115.5,967L136.5,967L136.5,970L157.5,970L157.5,967L178.5,967L178.5,970L202,970L202,989.5L205,989.5L205,1010.5L202,1010.5L202,1031.5L205,1031.5L205,1052.5L202,1052.5L202,1073.5L205,1073.5L205,1094.5L202,1094.5L202,1114L178.5,1114L178.5,1117L157.5,1117z"/>
</svg>
