<?xml version="1.0" encoding="UTF-8" standalone="no"?>
<svg xmlns="http://www.w3.org/2000/svg" xmlns:xlink="http://www.w3.org/1999/xlink" width="150.000mm" height="200.000mm" viewBox="31.000000 -242.000000 150.000000 200.000000">
    <path transform="matrix(1,0,0,-1,26,722)" style="stroke:#ff0000;stroke-width:0.050000mm;fill:none" d="M152,964L132.5,964L132.5,961L111.5,961L111.5,964L90.5,964L90.5,961L69.5,961L69.5,964L48.5,964L48.5,961L27.5,961L27.5,964L8,964L5,964L5,961L5,937.5L8,937.5L8,916.5L5,916.5L5,895.5L8,895.5L8,874.5L5,874.5L5,853.5L8,853.5L8,832.5L5,832.5L5,811.5L8,811.5L8,790.5L5,790.5L5,767L5,764L8,764L27.5,764L27.5,767L48.5,767L48.5,764L69.5,764L69.5,767L90.5,767L90.5,764L111.5,764L111.5,767L132.5,767L132.5,764L152,764L155,764L155,767L155,790.5L152,790.5L152,811.5L155,811.5L155,832.5L152,832.5L152,853.5L155,853.5L155,874.5L152,874.5L152,895.5L155,895.5L155,916.5L152,916.5L152,937.5L155,937.5L155,961L155,964L152,964z"/>
</svg>
