<?xml version="1.0" encoding="UTF-8" standalone="no"?>
<svg xmlns="http://www.w3.org/2000/svg" xmlns:xlink="http://www.w3.org/1999/xlink" width="200.000mm" height="200.000mm" viewBox="6.000000 -280.000000 200.000000 200.000000">
    <path transform="matrix(1,0,0,-1,1,481)" style="stroke:#ff0000;stroke-width:0.050000mm;fill:none" d="M178.5,761L178.5,758L157.5,758L157.5,761L136.5,761L136.5,758L115.5,758L115.5,761L94.5,761L94.5,758L73.5,758L73.5,761L52.5,761L52.5,758L31.5,758L31.5,761L8,761L8,758L8,734.5L5,734.5L5,713.5L8,713.5L8,692.5L5,692.5L5,671.5L8,671.5L8,650.5L5,650.5L5,629.5L8,629.5L8,608.5L5,608.5L5,587.5L8,587.5L8,564L8,561L31.5,561L31.5,564L52.5,564L52.5,561L73.5,561L73.5,564L94.5,564L94.5,561L115.5,561L115.5,564L136.5,564L136.5,561L157.5,561L157.5,564L178.5,564L178.5,561L202,561L202,564L202,587.5L205,587.5L205,608.5L202,608.5L202,629.5L205,629.5L205,650.5L202,650.5L202,671.5L205,671.5L205,692.5L202,692.5L202,713.5L205,713.5L205,734.5L202,734.5L202,758L202,761L178.5,761z"/>
    <circle transform="matrix(1,0,0,-1,45.589203,-189.942383)" style="stroke:#ff0000;stroke-width:0.050000mm;fill:none" r="1.5" cx="0" cy="0"/>
    <circle transform="matrix(1,0,0,-1,45.589203,-159.942383)" style="stroke:#ff0000;stroke-width:0.050000mm;fill:none" r="1.5" cx="0" cy="0"/>
    <circle transform="matrix(1,0,0,-1,165.754257,-189.942383)" style="stroke:#ff0000;stroke-width:0.050000mm;fill:none" r="1.5" cx="0" cy="0"/>
    <circle transform="matrix(1,0,0,-1,165.754257,-159.942383)" style="stroke:#ff0000;stroke-width:0.050000mm;fill:none" r="1.5" cx="0" cy="0"/>
    <rect transform="matrix(1,0,0,-1,104,-255)" style="stroke:#ff0000;stroke-width:0.050000mm;fill:none" x="-15.054337" y="-5" width="30.108673" height="10"/>
    <rect transform="matrix(1,0,0,-1,104,-232.56488)" style="stroke:#ff0000;stroke-width:0.050000mm;fill:none" x="-15.054337" y="-3.435112" width="30.108673" height="6.870224"/>
    <rect transform="matrix(1,0,0,-1,103,-143)" style="stroke:#ff0000;stroke-width:0.050000mm;fill:none" x="-15.054337" y="-3.435112" width="30.108673" height="6.870224"/>
</svg>
