<?xml version="1.0" encoding="UTF-8" standalone="no"?>
<svg xmlns="http://www.w3.org/2000/svg" xmlns:xlink="http://www.w3.org/1999/xlink" width="200.000mm" height="200.000mm" viewBox="5.000000 -276.000000 200.000000 200.000000">
    <path transform="matrix(1,0,0,-1,0,485)" style="stroke:#ff0000;stroke-width:0.050000mm;fill:none" d="M178.5,761L178.5,758L157.5,758L157.5,761L136.5,761L136.5,758L115.5,758L115.5,761L94.5,761L94.5,758L73.5,758L73.5,761L52.5,761L52.5,758L31.5,758L31.5,761L8,761L8,758L8,734.5L5,734.5L5,713.5L8,713.5L8,692.5L5,692.5L5,671.5L8,671.5L8,650.5L5,650.5L5,629.5L8,629.5L8,608.5L5,608.5L5,587.5L8,587.5L8,564L8,561L31.5,561L31.5,564L52.5,564L52.5,561L73.5,561L73.5,564L94.5,564L94.5,561L115.5,561L115.5,564L136.5,564L136.5,561L157.5,561L157.5,564L178.5,564L178.5,561L202,561L202,564L202,587.5L205,587.5L205,608.5L202,608.5L202,629.5L205,629.5L205,650.5L202,650.5L202,671.5L205,671.5L205,692.5L202,692.5L202,713.5L205,713.5L205,734.5L202,734.5L202,758L202,761L178.5,761z"/>
    <rect transform="matrix(1,0,0,-1,60,-134.999985)" style="stroke:#ff0000;stroke-width:0.050000mm;fill:none" x="-30.100014" y="-35.000031" width="60.200027" height="70.000061"/>
    <rect transform="matrix(1,0,0,-1,150.035309,-135.014664)" style="stroke:#ff0000;stroke-width:0.050000mm;fill:none" x="-30.035324" y="-35.085323" width="60.070648" height="70.170647"/>
</svg>
